<svg width="330" height="141" viewBox="0 0 330 141" fill="none" xmlns="http://www.w3.org/2000/svg">
<ellipse cx="124.597" cy="32.0377" rx="12.5" ry="32" transform="rotate(-0.173282 124.597 32.0377)" fill="#ABC4FF"/>
<ellipse cx="204.597" cy="32.0377" rx="12.5" ry="32" fill="#ABC4FF"/>
<ellipse cx="165.097" cy="32.0377" rx="8" ry="20" fill="#F08080"/>
<path d="M27.144 106.811L14.472 89.8193V122.075H6.408V73.1153H11.448L28.368 96.5153L44.064 73.1153H49.104V122.075H40.896V90.9713L30.24 106.379L27.144 106.811ZM65.9902 111.851C65.9902 113.003 66.4463 114.083 67.3583 115.091C68.2703 116.051 69.5423 116.531 71.1743 116.531C72.6623 116.531 74.1263 116.171 75.5663 115.451C77.0543 114.683 78.3983 113.699 79.5983 112.499V106.307H71.8223C69.9023 106.307 68.4383 106.859 67.4303 107.963C66.4703 109.067 65.9902 110.363 65.9902 111.851ZM60.8783 89.3873C62.2223 88.4753 64.2143 87.7313 66.8543 87.1553C69.4943 86.5313 71.5583 86.2193 73.0463 86.2193C77.1743 86.2193 80.6543 87.3953 83.4863 89.7473C86.3183 92.0993 87.7343 95.0993 87.7343 98.7473V122.075H83.3423C83.0063 121.595 82.6703 121.091 82.3343 120.563C81.9983 119.987 81.6623 119.459 81.3263 118.979C80.0783 120.035 78.5423 120.971 76.7183 121.787C74.8943 122.555 73.0943 122.939 71.3183 122.939C67.1423 122.939 64.0223 121.907 61.9583 119.843C59.9423 117.779 58.9343 115.115 58.9343 111.851C58.9343 108.299 60.1343 105.587 62.5343 103.715C64.9343 101.795 68.0783 100.835 71.9663 100.835H79.5263C79.3823 98.7713 78.8543 97.0673 77.9423 95.7233C77.0303 94.3313 75.4463 93.6353 73.1903 93.6353C71.3663 93.6353 69.5423 93.8753 67.7183 94.3553C65.9423 94.8353 64.4063 95.3873 63.1103 96.0113C62.7263 94.9073 62.3423 93.8033 61.9583 92.6993C61.5743 91.5953 61.2143 90.4913 60.8783 89.3873ZM103.986 91.3313C105.522 89.6993 107.466 88.4033 109.818 87.4433C112.218 86.4353 114.378 85.9313 116.298 85.9313C120.762 85.9313 123.978 87.2513 125.946 89.8913C127.962 92.4833 128.97 95.7233 128.97 99.6113V122.075H120.834V100.115C120.834 97.8593 120.282 96.0833 119.178 94.7873C118.122 93.4913 116.514 92.8433 114.354 92.8433C112.962 92.8433 111.426 93.2513 109.746 94.0673C108.066 94.8353 106.554 95.8193 105.21 97.0193V122.075H97.074V87.1553H101.538L103.986 91.3313ZM144.107 111.851C144.107 113.003 144.563 114.083 145.475 115.091C146.387 116.051 147.659 116.531 149.291 116.531C150.779 116.531 152.243 116.171 153.683 115.451C155.171 114.683 156.515 113.699 157.715 112.499V106.307H149.939C148.019 106.307 146.555 106.859 145.547 107.963C144.587 109.067 144.107 110.363 144.107 111.851ZM138.995 89.3873C140.339 88.4753 142.331 87.7313 144.971 87.1553C147.611 86.5313 149.675 86.2193 151.163 86.2193C155.291 86.2193 158.771 87.3953 161.603 89.7473C164.435 92.0993 165.851 95.0993 165.851 98.7473V122.075H161.459C161.123 121.595 160.787 121.091 160.451 120.563C160.115 119.987 159.779 119.459 159.443 118.979C158.195 120.035 156.659 120.971 154.835 121.787C153.011 122.555 151.211 122.939 149.435 122.939C145.259 122.939 142.139 121.907 140.075 119.843C138.059 117.779 137.051 115.115 137.051 111.851C137.051 108.299 138.251 105.587 140.651 103.715C143.051 101.795 146.195 100.835 150.083 100.835H157.643C157.499 98.7713 156.971 97.0673 156.059 95.7233C155.147 94.3313 153.563 93.6353 151.307 93.6353C149.483 93.6353 147.659 93.8753 145.835 94.3553C144.059 94.8353 142.523 95.3873 141.227 96.0113C140.843 94.9073 140.459 93.8033 140.075 92.6993C139.691 91.5953 139.331 90.4913 138.995 89.3873ZM198.663 95.7953C197.463 94.9313 196.215 94.2353 194.919 93.7073C193.623 93.1313 192.375 92.8433 191.175 92.8433C187.719 92.8433 185.295 94.0673 183.903 96.5153C182.559 98.9153 181.887 101.555 181.887 104.435C181.887 107.603 182.535 110.339 183.831 112.643C185.127 114.899 187.575 116.027 191.175 116.027C192.375 116.027 193.623 115.763 194.919 115.235C196.215 114.659 197.463 113.939 198.663 113.075V95.7953ZM206.871 122.939C206.871 126.971 205.503 130.331 202.767 133.019C200.031 135.755 195.759 137.123 189.951 137.123C188.463 137.123 186.375 136.811 183.687 136.187C180.999 135.563 178.767 134.651 176.991 133.451C177.423 132.491 177.831 131.507 178.215 130.499C178.647 129.539 179.055 128.579 179.439 127.619C181.359 128.531 183.063 129.251 184.551 129.779C186.087 130.307 187.815 130.571 189.735 130.571C192.567 130.571 194.751 129.899 196.287 128.555C197.871 127.211 198.663 125.315 198.663 122.867V119.915C197.223 120.827 195.639 121.547 193.911 122.075C192.231 122.651 190.647 122.939 189.159 122.939C184.071 122.939 180.183 121.187 177.495 117.683C174.855 114.179 173.535 109.787 173.535 104.507C173.535 99.1793 174.927 94.7633 177.711 91.2593C180.495 87.7073 184.431 85.9313 189.519 85.9313C191.199 85.9313 193.071 86.3153 195.135 87.0833C197.247 87.8513 199.047 88.8833 200.535 90.1793L202.479 87.1553H206.871V122.939ZM247.991 106.811H223.799C224.135 109.547 225.167 111.779 226.895 113.507C228.623 115.235 231.071 116.099 234.239 116.099C236.063 116.099 237.647 115.883 238.991 115.451C240.335 115.019 241.775 114.443 243.311 113.723C243.743 114.683 244.151 115.667 244.535 116.675C244.967 117.683 245.375 118.667 245.759 119.627C244.175 120.779 242.207 121.619 239.855 122.147C237.503 122.675 235.583 122.939 234.095 122.939C228.143 122.939 223.511 121.283 220.199 117.971C216.887 114.611 215.231 110.171 215.231 104.651C215.231 99.1313 216.767 94.6913 219.839 91.3313C222.911 87.9233 227.087 86.2193 232.367 86.2193C238.367 86.2193 242.471 88.3073 244.679 92.4833C246.887 96.6113 247.991 101.387 247.991 106.811ZM240.215 101.339C239.735 98.7473 238.823 96.7553 237.479 95.3633C236.183 93.9233 234.407 93.2033 232.151 93.2033C229.847 93.2033 227.975 93.9233 226.535 95.3633C225.143 96.8033 224.279 98.7953 223.943 101.339H240.215Z" fill="#FAFAFA"/>
<path d="M274.299 122.075V73.1153H282.363V122.075H274.299Z" fill="#ABC4FF"/>
<path d="M329.02 79.5233H312.604V122.075H304.396V79.5233H289.348V73.1153H327.796L329.02 79.5233Z" fill="#F08080"/>
</svg>
